<?xml version="1.0" encoding="UTF-8"?>
<svg id="SVGDoc" width="30" height="19" xmlns="http://www.w3.org/2000/svg" version="1.1" xmlns:xlink="http://www.w3.org/1999/xlink" xmlns:avocode="https://avocode.com/" viewBox="0 0 30 19"><defs></defs><desc>Generated with Avocode.</desc><g><g><title>Rounded Rectangle 1 copy 2</title><path d="M4.08737,8.49937l10.84481,7.09184l10.91522,-7.13783c0.94471,-0.61785 2.4765,-0.61785 3.42121,0c0.94482,0.61763 0.94482,1.61936 0,2.2372l-11.97441,7.83055c-0.65724,0.42984 -1.59862,0.56063 -2.42882,0.3924c-0.79134,0.12879 -1.66338,-0.00901 -2.28202,-0.4134l-11.8943,-7.77858c-0.93842,-0.61342 -0.93842,-1.6083 0,-2.22217c0.93842,-0.61364 2.45991,-0.61364 3.39832,0zM6.99738,0.36321l7.95271,5.1576l8.00459,-5.19121c0.69283,-0.44912 1.81618,-0.44912 2.509,0c0.69283,0.44934 0.69283,1.17776 0,1.6271l-8.78128,5.69484c-0.48204,0.31279 -1.17242,0.40795 -1.78124,0.28549c-0.58029,0.09367 -1.21977,-0.00658 -1.67339,-0.30075l-8.72246,-5.65681c-0.68825,-0.44669 -0.68825,-1.17002 0,-1.61626c0.68813,-0.44647 1.80393,-0.44647 2.49207,0z" fill="#ffffff" fill-opacity="1"></path></g></g></svg>